<svg xmlns="http://www.w3.org/2000/svg" width="48" height="48" viewBox="0 0 48 48" fill="none">
  <defs>
    <linearGradient id="o" x1="8" y1="5" x2="34" y2="23" gradientUnits="userSpaceOnUse">
      <stop stop-color="#f4774a"/><stop offset="1" stop-color="#e85d2c"/>
    </linearGradient>
    <linearGradient id="t" x1="16" y1="15" x2="42" y2="33" gradientUnits="userSpaceOnUse">
      <stop stop-color="#55b3a6"/><stop offset="1" stop-color="#2f8f83"/>
    </linearGradient>
    <linearGradient id="g" x1="10" y1="26" x2="36" y2="44" gradientUnits="userSpaceOnUse">
      <stop stop-color="#eaba55"/><stop offset="1" stop-color="#d99f2f"/>
    </linearGradient>
  </defs>
  <g transform="rotate(-9 21 14)">
    <rect x="8" y="5" width="26" height="18" rx="4.5" fill="url(#o)"/>
    <rect x="13" y="10.5" width="16" height="2.6" rx="1.3" fill="#ffffff" opacity=".95"/>
    <rect x="13" y="14.5" width="16" height="2.6" rx="1.3" fill="#ffffff" opacity=".7"/>
    <rect x="13" y="18.5" width="9.6" height="2.6" rx="1.3" fill="#ffffff" opacity=".7"/>
  </g>
  <g transform="rotate(7 29 24)">
    <rect x="16" y="15" width="26" height="18" rx="4.5" fill="url(#t)"/>
    <rect x="21" y="20.5" width="16" height="2.6" rx="1.3" fill="#ffffff" opacity=".95"/>
    <rect x="21" y="24.5" width="16" height="2.6" rx="1.3" fill="#ffffff" opacity=".7"/>
    <rect x="21" y="28.5" width="9.6" height="2.6" rx="1.3" fill="#ffffff" opacity=".7"/>
  </g>
  <g transform="rotate(-7 23 35)">
    <rect x="10" y="26" width="26" height="18" rx="4.5" fill="url(#g)"/>
    <rect x="15" y="31.5" width="16" height="2.6" rx="1.3" fill="#ffffff" opacity=".95"/>
    <rect x="15" y="35.5" width="16" height="2.6" rx="1.3" fill="#ffffff" opacity=".7"/>
    <rect x="15" y="39.5" width="9.6" height="2.6" rx="1.3" fill="#ffffff" opacity=".7"/>
  </g>
  <path d="M24 43.5 L24 46.8 M21 45 L24 47.6 L27 45" stroke="#e85d2c" stroke-width="2.4" stroke-linecap="round" stroke-linejoin="round"/>
</svg>
